<svg width="36" height="36" viewBox="0 0 36 36" fill="none" xmlns="http://www.w3.org/2000/svg">
<path d="M30.2016 5.79852L29.4604 5.68339C29.4237 5.91985 29.502 6.15964 29.6712 6.32885C29.8404 6.49806 30.0802 6.57637 30.3167 6.53963L30.2016 5.79852ZM27.7832 12.5479L28.3433 12.0491C28.206 11.895 28.0112 11.8042 27.8048 11.7982C27.5985 11.7923 27.3988 11.8716 27.2528 12.0176L27.7832 12.5479ZM12.5482 27.7829L12.0178 27.2526C11.8719 27.3986 11.7925 27.5983 11.7985 27.8046C11.8045 28.011 11.8952 28.2057 12.0494 28.343L12.5482 27.7829ZM5.79877 30.2013L6.53988 30.3165C6.57661 30.08 6.49831 29.8402 6.3291 29.671C6.15989 29.5018 5.92009 29.4235 5.68363 29.4602L5.79877 30.2013ZM8.21715 23.4519L7.65707 23.9507C7.79436 24.1049 7.98913 24.1956 8.19548 24.2016C8.40182 24.2076 8.60151 24.1282 8.74748 23.9822L8.21715 23.4519ZM23.4521 8.2169L23.9825 8.74723C24.1284 8.60126 24.2078 8.40158 24.2018 8.19523C24.1959 7.98888 24.1051 7.79412 23.951 7.65682L23.4521 8.2169ZM30.9427 5.91366C30.9806 5.66974 31.0002 5.4202 31.0002 5.16658H29.5002C29.5002 5.34283 29.4865 5.51538 29.4604 5.68339L30.9427 5.91366ZM30.8335 4.99992C30.5799 4.99992 30.3303 5.01952 30.0864 5.05741L30.3167 6.53963C30.4847 6.51353 30.6573 6.49992 30.8335 6.49992V4.99992ZM35.6668 9.83325C35.6668 7.16388 33.5029 4.99992 30.8335 4.99992V6.49992C32.6744 6.49992 34.1668 7.9923 34.1668 9.83325H35.6668ZM30.8335 14.6666C33.5029 14.6666 35.6668 12.5026 35.6668 9.83325H34.1668C34.1668 11.6742 32.6744 13.1666 30.8335 13.1666V14.6666ZM27.2231 13.0467C28.1073 14.0395 29.3976 14.6666 30.8335 14.6666V13.1666C29.8434 13.1666 28.9549 12.7359 28.3433 12.0491L27.2231 13.0467ZM13.0785 28.3133L28.3135 13.0783L27.2528 12.0176L12.0178 27.2526L13.0785 28.3133ZM14.6668 30.8333C14.6668 29.3974 14.0398 28.107 13.047 27.2228L12.0494 28.343C12.7361 28.9546 13.1668 29.8431 13.1668 30.8333H14.6668ZM9.8335 35.6666C12.5029 35.6666 14.6668 33.5026 14.6668 30.8333H13.1668C13.1668 32.6742 11.6744 34.1666 9.8335 34.1666V35.6666ZM5.00016 30.8333C5.00016 33.5026 7.16412 35.6666 9.8335 35.6666V34.1666C7.99255 34.1666 6.50016 32.6742 6.50016 30.8333H5.00016ZM5.05766 30.0862C5.01976 30.3301 5.00016 30.5796 5.00016 30.8333H6.50016C6.50016 30.657 6.51378 30.4845 6.53988 30.3165L5.05766 30.0862ZM5.16683 30.9999C5.42045 30.9999 5.66999 30.9803 5.91391 30.9424L5.68363 29.4602C5.51563 29.4863 5.34307 29.4999 5.16683 29.4999V30.9999ZM0.333496 26.1666C0.333496 28.836 2.49745 30.9999 5.16683 30.9999V29.4999C3.32588 29.4999 1.8335 28.0075 1.8335 26.1666H0.333496ZM5.16683 21.3333C2.49745 21.3333 0.333496 23.4972 0.333496 26.1666H1.8335C1.8335 24.3256 3.32588 22.8333 5.16683 22.8333V21.3333ZM8.77723 22.9531C7.89305 21.9603 6.60269 21.3333 5.16683 21.3333V22.8333C6.15694 22.8333 7.04547 23.264 7.65707 23.9507L8.77723 22.9531ZM22.9218 7.68657L7.68682 22.9216L8.74748 23.9822L23.9825 8.74723L22.9218 7.68657ZM21.3335 5.16658C21.3335 6.60244 21.9606 7.89281 22.9533 8.77698L23.951 7.65682C23.2642 7.04522 22.8335 6.15669 22.8335 5.16658H21.3335ZM26.1668 0.333252C23.4975 0.333252 21.3335 2.49721 21.3335 5.16658H22.8335C22.8335 3.32564 24.3259 1.83325 26.1668 1.83325V0.333252ZM31.0002 5.16658C31.0002 2.49721 28.8362 0.333252 26.1668 0.333252V1.83325C28.0078 1.83325 29.5002 3.32564 29.5002 5.16658H31.0002Z" fill="#9EB9BD"/>
</svg>
