<svg width="267" height="24" viewBox="0 0 267 24" fill="none" xmlns="http://www.w3.org/2000/svg">
<path d="M254.484 23.0005V15.8828" stroke="#0095A9" stroke-width="1.03467" stroke-miterlimit="10" stroke-linecap="round" stroke-linejoin="round"/>
<path d="M254.484 8.11768V0.999983" stroke="#0095A9" stroke-width="1.03467" stroke-miterlimit="10" stroke-linecap="round" stroke-linejoin="round"/>
<path d="M265.484 12.0005H258.366" stroke="#0095A9" stroke-width="1.03467" stroke-miterlimit="10" stroke-linecap="round" stroke-linejoin="round"/>
<path d="M250.602 12.0005H243.484" stroke="#0095A9" stroke-width="1.03467" stroke-miterlimit="10" stroke-linecap="round" stroke-linejoin="round"/>
<path d="M251.764 14.7705L246.779 19.8501" stroke="#0095A9" stroke-width="1.03467" stroke-miterlimit="10" stroke-linecap="round" stroke-linejoin="round"/>
<path d="M262.19 4.15043L257.204 9.22998" stroke="#0095A9" stroke-width="1.03467" stroke-miterlimit="10" stroke-linecap="round" stroke-linejoin="round"/>
<path d="M262.334 19.7061L257.254 14.7204" stroke="#0095A9" stroke-width="1.03467" stroke-miterlimit="10" stroke-linecap="round" stroke-linejoin="round"/>
<path d="M251.713 9.28076L246.634 4.29473" stroke="#0095A9" stroke-width="1.03467" stroke-miterlimit="10" stroke-linecap="round" stroke-linejoin="round"/>
<path d="M257.386 11.9997C257.386 13.6026 256.087 14.9019 254.484 14.9019C252.881 14.9019 251.582 13.6026 251.582 11.9997C251.582 10.3968 252.881 9.09758 254.484 9.09758C256.087 9.09758 257.386 10.3968 257.386 11.9997Z" stroke="#0095A9" stroke-width="1.03467" stroke-miterlimit="10" stroke-linecap="round" stroke-linejoin="round"/>
<path d="M261.024 9.35751L258.084 10.5454" stroke="#0095A9" stroke-width="1.03467" stroke-miterlimit="10" stroke-linecap="round" stroke-linejoin="round"/>
<path d="M263.247 8.46017L261.654 9.10352" stroke="#0095A9" stroke-width="1.03467" stroke-miterlimit="10" stroke-linecap="round" stroke-linejoin="round"/>
<path d="M251.566 4.76025L250.944 3.23833" stroke="#0095A9" stroke-width="1.03467" stroke-miterlimit="10" stroke-linecap="round" stroke-linejoin="round"/>
<path d="M253.029 8.40039L252.373 6.77482L251.799 5.33914" stroke="#0095A9" stroke-width="1.03467" stroke-miterlimit="10" stroke-linecap="round" stroke-linejoin="round"/>
<path d="M247.27 9.01758L245.751 8.38881" stroke="#0095A9" stroke-width="1.03467" stroke-miterlimit="10" stroke-linecap="round" stroke-linejoin="round"/>
<path d="M250.896 10.5166L247.839 9.25258" stroke="#0095A9" stroke-width="1.03467" stroke-miterlimit="10" stroke-linecap="round" stroke-linejoin="round"/>
<path d="M257.207 5.41766L255.968 8.41211" stroke="#0095A9" stroke-width="1.03467" stroke-miterlimit="10" stroke-linecap="round" stroke-linejoin="round"/>
<path d="M258.096 3.26747L257.44 4.85498" stroke="#0095A9" stroke-width="1.03467" stroke-miterlimit="10" stroke-linecap="round" stroke-linejoin="round"/>
<path d="M247.959 14.666L250.899 13.4781" stroke="#0095A9" stroke-width="1.03467" stroke-miterlimit="10" stroke-linecap="round" stroke-linejoin="round"/>
<path d="M245.736 15.5635L247.329 14.9201" stroke="#0095A9" stroke-width="1.03467" stroke-miterlimit="10" stroke-linecap="round" stroke-linejoin="round"/>
<path d="M257.417 19.2641L258.039 20.7856" stroke="#0095A9" stroke-width="1.03467" stroke-miterlimit="10" stroke-linecap="round" stroke-linejoin="round"/>
<path d="M255.953 15.6233L256.61 17.2489L257.183 18.6846" stroke="#0095A9" stroke-width="1.03467" stroke-miterlimit="10" stroke-linecap="round" stroke-linejoin="round"/>
<path d="M261.712 15.0069L263.232 15.6353" stroke="#0095A9" stroke-width="1.03467" stroke-miterlimit="10" stroke-linecap="round" stroke-linejoin="round"/>
<path d="M258.087 13.507L261.144 14.771" stroke="#0095A9" stroke-width="1.03467" stroke-miterlimit="10" stroke-linecap="round" stroke-linejoin="round"/>
<path d="M251.776 18.606L253.015 15.6115" stroke="#0095A9" stroke-width="1.03467" stroke-miterlimit="10" stroke-linecap="round" stroke-linejoin="round"/>
<path d="M250.887 20.7563L251.543 19.1684" stroke="#0095A9" stroke-width="1.03467" stroke-miterlimit="10" stroke-linecap="round" stroke-linejoin="round"/>
<path d="M14.2131 3.7027V20.5552H14.1451L2.16567 8.39518L2.2106 20.0139H0V3.20632H0.112957L12.0697 15.502L12.0248 3.7027H14.2131Z" fill="black"/>
<path d="M36.2771 3.70299V5.80145H27.8618V10.7644H35.3746V12.8625H27.8618V17.8934H36.5925V20.0142H25.6738V3.70299H36.2771Z" fill="black"/>
<path d="M49.2268 14.9832C49.7681 15.9306 50.5087 16.6829 51.4488 17.2392C52.3889 17.7954 53.4153 18.074 54.5283 18.074C55.6413 18.074 56.6599 17.7995 57.5854 17.2505C58.5106 16.7015 59.2394 15.9496 59.7738 14.9941C60.307 14.0394 60.5742 12.9977 60.5742 11.8701C60.5742 10.7417 60.3038 9.69634 59.7621 8.73355C59.2212 7.77157 58.4835 7.01202 57.5514 6.45532C56.619 5.89902 55.5959 5.62046 54.4829 5.62046C53.3699 5.62046 52.3472 5.90226 51.4148 6.46666C50.4827 7.03024 49.7491 7.79382 49.2155 8.75621C48.6811 9.719 48.4146 10.7644 48.4146 11.8924C48.4146 13.0054 48.6851 14.0354 49.2268 14.9832ZM47.2863 7.71892C48.0381 6.44032 49.0499 5.42127 50.3208 4.66173C51.5917 3.90259 52.9792 3.5224 54.4829 3.5224C55.972 3.5224 57.3559 3.90259 58.6345 4.66173C59.9127 5.42127 60.9317 6.44032 61.6913 7.71892C62.4508 8.99711 62.8306 10.381 62.8306 11.8701C62.8306 13.3738 62.4545 14.7654 61.7026 16.0436C60.9504 17.3217 59.9313 18.3331 58.6458 19.0777C57.3599 19.8223 55.972 20.1943 54.4829 20.1943C52.9792 20.1943 51.5876 19.8263 50.3094 19.0894C49.0313 18.3522 48.0199 17.3485 47.2753 16.0772C46.5308 14.8063 46.1587 13.4042 46.1587 11.8701C46.1587 10.381 46.5344 8.99711 47.2863 7.71892Z" fill="black"/>
<path d="M91.4341 10.9672C91.9532 10.351 92.2127 9.64369 92.2127 8.8469C92.2127 8.36551 92.103 7.8914 91.8856 7.42539C91.6673 6.95938 91.3216 6.57192 90.8479 6.2634C90.3738 5.9553 89.7757 5.80103 89.0539 5.80103H86.5274V11.8924H88.896C90.0693 11.8924 90.9155 11.5839 91.4341 10.9672ZM93.318 20.0142L89.483 13.9904C89.3624 14.0054 89.1822 14.0127 88.9417 14.0127H86.5274V20.0142H84.3391V3.70299H88.6931C89.8061 3.70299 90.7989 3.89853 91.6714 4.28964C92.5431 4.68075 93.2277 5.25608 93.7241 6.01562C94.2205 6.77517 94.4687 7.68856 94.4687 8.75621C94.4687 9.76394 94.2464 10.6891 93.8034 11.5316C93.3593 12.3738 92.6787 13.0131 91.7617 13.4491L95.8671 20.0142H93.318Z" fill="black"/>
<path d="M116.601 3.70299V5.80145H108.185V10.7644H115.698V12.8625H108.185V17.8934H116.916V20.0142H105.997V3.70299H116.601Z" fill="black"/>
<path d="M141.71 3.7027V20.5552H141.643L129.663 8.39518L129.708 20.0139H127.497V3.20632H127.61L139.567 15.502L139.522 3.7027H141.71Z" fill="black"/>
<path d="M162.804 3.70299V5.80145H158.428V20.0142H156.24V5.80145H151.975V3.70299H162.804Z" fill="black"/>
<path d="M179.589 13.8325L177.265 7.87643L174.852 13.8325H179.589ZM180.334 15.7278H174.062L172.325 20.0142H170.159L177.288 3.02604H177.423L184.552 20.0142H182.026L180.334 15.7278Z" fill="black"/>
<path d="M196.554 3.70299V17.8934H204.857V20.0142H194.366V3.70299H196.554Z" fill="black"/>
<path d="M221.732 5.8464C221.069 5.65125 220.445 5.55287 219.859 5.55287C218.971 5.55287 218.268 5.75247 217.749 6.15087C217.231 6.54927 216.971 7.09503 216.971 7.78655C216.971 8.4635 217.276 9.01576 217.885 9.44492C218.494 9.87328 219.362 10.2984 220.491 10.7191C221.333 11.0203 222.044 11.3474 222.623 11.7009C223.202 12.0543 223.683 12.543 224.067 13.1669C224.45 13.7912 224.642 14.5848 224.642 15.5472C224.642 16.4197 224.423 17.2092 223.988 17.9161C223.551 18.6234 222.931 19.1797 222.127 19.5858C221.321 19.9919 220.378 20.1943 219.295 20.1943C218.287 20.1943 217.317 20.0328 216.385 19.7097C215.452 19.3862 214.632 18.9765 213.926 18.4801L214.895 16.7428C215.452 17.1643 216.121 17.5213 216.904 17.8149C217.685 18.1076 218.415 18.2542 219.092 18.2542C219.964 18.2542 220.728 18.0291 221.382 17.578C222.036 17.1262 222.363 16.4573 222.363 15.5699C222.363 14.818 222.088 14.2204 221.539 13.7763C220.991 13.3325 220.22 12.9155 219.227 12.524C218.31 12.1786 217.547 11.8402 216.937 11.509C216.328 11.1782 215.806 10.7231 215.369 10.1437C214.933 9.56558 214.715 8.83963 214.715 7.96673C214.715 6.68854 215.163 5.65448 216.057 4.86498C216.952 4.07507 218.114 3.65804 219.543 3.61269C221.303 3.61269 222.935 4.04915 224.439 4.92125L223.604 6.61364C223.018 6.29744 222.393 6.04155 221.732 5.8464Z" fill="black"/>
</svg>
