<svg width="56" height="56" viewBox="0 0 56 56" fill="none" xmlns="http://www.w3.org/2000/svg">
<path d="M20.7448 21.6562L11.3698 41.5186C10.3741 43.4652 12.3641 45.5884 14.3735 44.7233L34.0703 37.7708" stroke="#9EB9BD" stroke-width="1.5" stroke-linecap="round" stroke-linejoin="round"/>
<path d="M31.079 25.6139C34.9052 30.0288 36.6284 35.1984 34.9278 37.1606C33.2273 39.1228 28.747 37.1345 24.9207 32.7196C21.0945 28.3047 19.3713 23.1351 21.0718 21.1729C22.7724 19.2107 27.2527 21.199 31.079 25.6139Z" stroke="#9EB9BD" stroke-width="1.5" stroke-linecap="round" stroke-linejoin="round"/>
<path d="M22.1664 41.152C20.7739 40.2622 19.3045 38.9829 17.9207 37.3861C17.0094 36.3346 16.2174 35.2403 15.5625 34.1567" stroke="#9EB9BD" stroke-width="1.5" stroke-linecap="round" stroke-linejoin="round"/>
<path d="M26.8333 11.6667C26.8333 12.311 26.311 12.8333 25.6667 12.8333C25.0223 12.8333 24.5 12.311 24.5 11.6667C24.5 11.0223 25.0223 10.5 25.6667 10.5C26.311 10.5 26.8333 11.0223 26.8333 11.6667Z" stroke="#9EB9BD" stroke-linecap="round" stroke-linejoin="round"/>
<path d="M36.75 21.5833L37.0503 21.283C39.7839 18.5493 39.7839 14.1172 37.0503 11.3835L36.75 11.0833" stroke="#9EB9BD" stroke-width="1.5" stroke-linecap="round" stroke-linejoin="round"/>
<path d="M39.6665 30.3334L40.3499 29.65C41.2611 28.7387 42.7385 28.7387 43.6498 29.65L44.3332 30.3334" stroke="#9EB9BD" stroke-width="1.5" stroke-linecap="round" stroke-linejoin="round"/>
</svg>
