<svg width="56" height="56" viewBox="0 0 56 56" fill="none" xmlns="http://www.w3.org/2000/svg">
<rect width="56" height="56" rx="8" fill="#255E67"/>
<path d="M38.2929 39.7071C38.6834 40.0976 39.3166 40.0976 39.7071 39.7071C40.0976 39.3166 40.0976 38.6834 39.7071 38.2929L38.2929 39.7071ZM32.7296 31.3154C32.3391 30.9249 31.706 30.9249 31.3154 31.3154C30.9249 31.706 30.9249 32.3391 31.3154 32.7296L32.7296 31.3154ZM33.6 25.8C33.6 30.1078 30.1078 33.6 25.8 33.6V35.6C31.2124 35.6 35.6 31.2124 35.6 25.8H33.6ZM25.8 33.6C21.4922 33.6 18 30.1078 18 25.8H16C16 31.2124 20.3876 35.6 25.8 35.6V33.6ZM18 25.8C18 21.4922 21.4922 18 25.8 18V16C20.3876 16 16 20.3876 16 25.8H18ZM25.8 18C30.1078 18 33.6 21.4922 33.6 25.8H35.6C35.6 20.3876 31.2124 16 25.8 16V18ZM39.7071 38.2929L32.7296 31.3154L31.3154 32.7296L38.2929 39.7071L39.7071 38.2929Z" fill="white"/>
</svg>
