<svg width="56" height="56" viewBox="0 0 56 56" fill="none" xmlns="http://www.w3.org/2000/svg">
<path d="M39.6665 11.0833C39.6665 13.7597 37.093 16.3333 34.4165 16.3333C37.093 16.3333 39.6665 18.9068 39.6665 21.5833C39.6665 18.9068 42.24 16.3333 44.9165 16.3333C42.24 16.3333 39.6665 13.7597 39.6665 11.0833Z" stroke="#9EB9BD" stroke-width="1.5" stroke-linecap="round" stroke-linejoin="round"/>
<path d="M39.6665 34.4167C39.6665 37.0932 37.093 39.6667 34.4165 39.6667C37.093 39.6667 39.6665 42.2403 39.6665 44.9167C39.6665 42.2403 42.24 39.6667 44.9165 39.6667C42.24 39.6667 39.6665 37.0932 39.6665 34.4167Z" stroke="#9EB9BD" stroke-width="1.5" stroke-linecap="round" stroke-linejoin="round"/>
<path d="M21.0002 18.0833C21.0002 23.1388 16.139 27.9999 11.0835 27.9999C16.139 27.9999 21.0002 32.8611 21.0002 37.9166C21.0002 32.8611 25.8613 27.9999 30.9168 27.9999C25.8613 27.9999 21.0002 23.1388 21.0002 18.0833Z" stroke="#9EB9BD" stroke-width="1.5" stroke-linecap="round" stroke-linejoin="round"/>
</svg>
