<svg width="48" height="48" viewBox="0 0 48 48" fill="none" xmlns="http://www.w3.org/2000/svg">
<path d="M6.00007 1.67845e-05C2.68636 7.51468e-06 6.80629e-05 2.6863 6.30855e-05 6.00001L9.01224e-06 42C4.03492e-06 45.3137 2.6863 48 6.00001 48H42.0006C45.3143 48 48.0006 45.3137 48.0006 42L48.0005 6.00011C48.0005 2.68641 45.3143 0.000126763 42.0005 0.000117493L6.00007 1.67845e-05ZM37.5007 11.1546L32.127 36.3908C32.0263 36.8863 31.4617 37.1291 31.0329 36.8605L22.7693 31.3798L18.4226 35.4247C18.0357 35.7557 17.4366 35.5946 17.2682 35.1137L14.438 26.1877L6.83825 23.0709C6.25518 22.8052 6.26346 21.8765 6.86112 21.6444L36.5282 10.335C37.0626 10.1277 37.6145 10.593 37.5007 11.1546Z" fill="#245E67"/>
<path d="M18.181 32.4666L18.6638 27.878L32.0665 14.7771L15.8867 25.4027L18.181 32.4666Z" fill="#245E67"/>
</svg>
