<svg width="48" height="48" viewBox="0 0 48 48" fill="none" xmlns="http://www.w3.org/2000/svg">
<path d="M24.9776 10.1633C18.2904 10.1633 12.852 15.6012 12.8496 22.2855C12.8486 24.5764 13.4896 26.8069 14.703 28.7371L14.9911 29.1956L13.7665 33.6693L18.3546 32.4657L18.7975 32.7285C20.6587 33.8334 22.7923 34.4174 24.9679 34.4184H24.9727C31.6546 34.4184 37.093 28.98 37.0959 22.2952C37.0973 19.0558 35.8373 16.01 33.5483 13.7187C31.2594 11.4268 28.2156 10.1643 24.9776 10.1633ZM32.1087 27.4975C31.805 28.3488 30.3488 29.126 29.6489 29.2302C29.0211 29.3241 28.2263 29.363 27.3537 29.0856C26.8246 28.9177 26.1457 28.6933 25.276 28.3181C21.6194 26.7397 19.2317 23.0584 19.0496 22.8155C18.8676 22.5722 17.5613 20.8395 17.5613 19.0456C17.5613 17.2516 18.5026 16.3702 18.837 16.0052C19.1708 15.6401 19.566 15.5491 19.8089 15.5491C20.0518 15.5491 20.2951 15.5516 20.5073 15.5618C20.7312 15.573 21.0315 15.4771 21.3274 16.1872C21.6311 16.9172 22.3602 18.7107 22.4512 18.8932C22.5422 19.0757 22.603 19.2884 22.4813 19.5318C22.3597 19.7746 22.2993 19.927 22.1168 20.1396C21.9343 20.3523 21.7343 20.6147 21.5702 20.7782C21.3877 20.9597 21.1979 21.1573 21.4106 21.5219C21.6233 21.8869 22.3548 23.0803 23.4382 24.0464C24.8301 25.2879 26.0045 25.6729 26.3691 25.8554C26.7336 26.0379 26.9463 26.0073 27.1585 25.7644C27.3712 25.5211 28.0696 24.7 28.3125 24.3355C28.5553 23.9709 28.7982 24.0313 29.1325 24.1529C29.4664 24.2746 31.2584 25.156 31.623 25.3385C31.9875 25.5211 32.2304 25.6121 32.3214 25.7644C32.4124 25.9163 32.4124 26.6463 32.1087 27.4975Z" fill="#245E67"/>
<path d="M48.0001 6.00002C48.0001 2.68631 45.3138 7.96311e-06 42 1.77861e-05L6.00006 0.000124502C2.68636 0.000134325 8.10273e-05 2.68642 7.51019e-05 6.00011L1.07289e-05 42.0001C4.80348e-06 45.3138 2.6863 48.0001 6.00001 48.0001H42.0001C45.3138 48.0001 48.0001 45.3139 48.0001 42.0001V6.00002ZM24.9725 36.8814H24.9667C22.5254 36.8804 20.127 36.2682 17.9967 35.1059L10.2645 37.1345L12.334 29.5761C11.0574 27.364 10.3857 24.8546 10.3872 22.2844C10.3896 14.2422 16.9333 7.69955 24.9725 7.69955C28.8744 7.70101 32.5368 9.21999 35.2905 11.9771C38.0442 14.7338 39.5603 18.3986 39.5583 22.2961C39.5549 30.3383 33.0113 36.8814 24.9725 36.8814Z" fill="#245E67"/>
</svg>
